# ProBuilder 5.2.3
# https://unity3d.com/unity/features/worldbuilding/probuilder
# 12/2/2024 1:26:08 PM

mtllib ./Rock_1.mtl
o Rock 1

g Rock 1
v -1.999999 0.7500048 7
v -3 6.875001E-06 8
v -3.999999 0.7500001 6
v -4 -2.635831E-08 6
v -2 -3.603935E-06 1
v -1.999999 0.7499965 0.9999999
v -4 -1.018456E-08 -2.226486E-11
v -3.999999 0.7500001 -1.172099E-07
v -2.249996 2.125005 1.25
v 4.453128E-06 2.375001 -0.8750004
v 4.218759E-06 2.250005 0.9999996
v 2 -3.750003E-06 -2.168044E-11
v 1.000006 3.249998 -0.5000005
v -2 -3.916436E-06 -1
v -0.4999962 1.999993 -1
v 2.000006 3.374999 6
v 4.218757E-06 2.250004 6
v 2.000007 3.624995 6
v 6.796873E-06 3.624999 6
v 8.671874E-06 4.624998 0.9999993
v 2.000009 4.624995 -7.226782E-07
v -1.999996 2.250001 6
v 0.500001 -5.468754E-07 5.5
v 1.907349E-06 0 6
v 2.000004 1.999997 5
v 1 -1.093751E-06 5
v -4 -1.827144E-08 3
v -4 -1.4228E-08 1.5
v -4 0.2500077 0.9999999
v -3.999999 0.750008 3.5
v -1.999996 2.250005 2.25
v -1.999997 1.750004 2
v 5.156251E-06 2.75 2.25
v 4.218758E-06 2.250004 3.5
v -1.999996 2.250005 3.5
v -1.999996 2.250001 4
v 1.000001 -1.875001E-06 3
v 1.5 -2.812502E-06 1.5
v -3.75 1.828299E-06 2.75
v -3.5 3.510533E-06 4.5
v -1.999999 0.7499986 2
v -1.999999 0.7500005 4
v 2.000008 4.374995 1.499999
v 8.203123E-06 4.374999 2.249999
v 2.000008 4.124995 2.999999
v 7.734373E-06 4.124999 3.499999
v 2.000007 3.749998 -5.859598E-07
v 2.000007 3.624998 2.75
v -4 -2.231487E-08 4.5
v -4 0.2500082 4.5
v 0.5000014 -9.375007E-07 4.5
v -3.25 5.192767E-06 6.25
v -1.999999 0.7500026 5
v -2.499995 2.500006 4.875
v 2.000007 3.874995 4.5
v 7.265622E-06 3.874998 4.75
v 5.156251E-06 2.750001 5
v 2.000007 3.499998 4.375
v 1.000001 -1.679689E-06 3.5
v 1.5 -2.421877E-06 2.5

vt 1.75838 5.7689
vt 2.910425 6.880337
vt 3.698666 4.657464
vt 3.880569 4.975016
vt 1.341641 -5.384127E-06
vt 1.34164 0.7499948
vt 3.577709 -1.790376E-06
vt 3.577708 0.7499983
vt 2.14267 1.435458
vt -0.7775596 2.051405
vt -0.7172771 1.9209
vt 1.39357 -0.4469775
vt 1.05543 2.97328
vt -2 1
vt 2 -2.226717E-11
vt -2 -1
vt 1.805859 0.2010071
vt 1.80586 -0.4943069
vt -0.6593331 1.515699
vt 0.02858621 -0.8381304
vt 0.7172771 1.9209
vt -1.39357 -0.4469775
vt -1.05543 2.97328
vt 2.000006 3.374999
vt 4.218757E-06 2.250004
vt 2.000007 3.624995
vt 6.796873E-06 3.624999
vt 0.8320477 2.250005
vt -0.9707292 3.249999
vt 0.8320449 4.624999
vt -1.109406 4.624998
vt -0.1082124 0.8484716
vt 2.145196 1.099025
vt -0.114224 -1.030681
vt -1.155149 -0.711382
vt 0.2298082 2.452013
vt 0.7450858 2.078028
vt 2.192429 0.04726511
vt -1.929786 0.05647786
vt -0.8335775 3.311272
vt -4.473821 0.09846789
vt -4.099662 1.693356
vt -1.594173 -0.5954533
vt -2.244933 -0.6266022
vt -5.775344 -0.709058
vt -2.244931 1.60909
vt -0.3901969 2.642658
vt -0.01604355 1.380836
vt -0.9434131 -0.5643045
vt 3 -7.647524E-06
vt 1.5 -7.643481E-06
vt 0.9999999 0.25
vt 3.5 0.7500004
vt -2.228542E-11 -7.639437E-06
vt -1.172099E-07 0.7499925
vt 0.9435723 -0.06543364
vt 1.967749 0.1054084
vt 1.719916 -0.2394211
vt 0.9913329 1.562882
vt 2.230499 1.81852
vt 3.469665 1.339913
vt 3.206915 -0.006076056
vt 3.702581 -0.0506727
vt 1.000001 3
vt 1.5 1.5
vt -3.75 2.75
vt -3.5 4.5
vt -4 1.5
vt -4 3
vt -4 -1.437138E-11
vt 3.814996 3.340579
vt 3.899746 0.9024552
vt 1.843936 1.882043
vt 1.843936 3.872
vt 3.814997 -0.141844
vt 1.843937 0.8870653
vt 4 0.8865621
vt 2 0.8865601
vt 2 1.884169
vt 4 2.382969
vt 0.9999996 0.8865581
vt 1.249999 2.275567
vt 0.2404326 0.2281112
vt -1.756863 -0.7753891
vt -1.769859 0.7452461
vt 0.2274362 1.502139
vt -1.782856 2.265881
vt 0.2144399 2.776166
vt 3.5 2.250004
vt 2.25 2.75
vt 2.249999 4.374999
vt 3.499999 4.124999
vt 0.9999996 2.250005
vt 0.9999993 4.624998
vt -0.5022967 4.624998
vt 0.2328257 3.25
vt -0.5022965 3.750001
vt -1.95422 4.374997
vt -3.164156 3.625
vt -3.406143 4.124997
vt 6 -7.655611E-06
vt 4.5 -7.651567E-06
vt 4.5 0.2500006
vt 6 0.7499925
vt 1.907349E-06 6
vt 0.5000014 4.5
vt -3.25 6.25
vt -3 8
vt -4 4.5
vt -4 6
vt 3.814997 5.828025
vt 3.899745 4.384879
vt 1.843935 4.866978
vt 1.843935 6.856934
vt 7 0.8865665
vt 5 0.8865643
vt 4.874999 2.666964
vt 5.999999 2.382968
vt -1.795852 3.786517
vt 0.2014435 4.050194
vt -1.808849 5.307152
vt 0.1884472 5.324222
vt 6 2.250004
vt 5 2.750001
vt 4.75 3.874998
vt 6 3.624999
vt -4.737072 3.499999
vt -4.858066 3.874996
vt -6.309989 3.375
vt -6.309989 3.624996
vt 4.50431 -0.2816427
vt 5.685246 -0.2290456
vt 4.956664 1.573255
vt 5.947996 1.116944
vt 1.000001 3.5
vt 1.5 2.5
vt 0.500001 5.5
vt 1 5
vt 0.5123677 3.353792
vt 0.02481104 0.2677788
vt -2.481199 0.2049873
vt -4.349852 3.74353
vt -2.724977 3.864705
vt 0.02481171 3.984011
vt -4.98721 0.1421957
vt -4.974803 2.258075
vt -5.974727 3.622356

vn -0.2182188 0.8728725 0.4364335
vn -0.556323 0.4364371 0.4418235
vn -0.8944272 1.705984E-06 0.4472136
vn 0.4472136 -9.951574E-07 -0.8944272
vn -0.6870281 0.007195157 -0.7265952
vn -0.6465886 0.4007238 -0.3424006
vn 0.6815751 0.3115756 0.6620998
vn 2.545647E-09 -1 1.562502E-07
vn -0.6977257 0.2671497 -0.4282671
vn -0.7999994 0.3000015 -0.3000001
vn -0.7353826 0.4647518 -0.1860687
vn -0.7999989 0.6000015 -9.375034E-08
vn -0.6815751 -0.3115756 -0.6620998
vn 0 0 1
vn -0.8320503 1.476568E-06 -0.5547002
vn -0.6034642 0.2726405 -0.652229
vn -0.3748781 0.5452796 -0.7497578
vn -0.3580645 0.8695105 0.05796566
vn -0.04798616 0.9966358 0.06644048
vn -0.6681429 0.7423852 0.04949085
vn 0.3590645 -0.176092 -0.9001022
vn 0.4649991 -0.3487509 -0.8137252
vn 0.3523692 -0.2500827 -0.8863412
vn 0.3060972 -0.08976263 -0.9432907
vn 0.3724551 -0.0281107 -0.9276243
vn 0.349893 0.272477 0.495427
vn 0 0 0
vn 0.3760282 0.3342464 0.4348509
vn 0.5986722 0.5321515 0.5986705
vn 0.5494504 0.4498608 0.6949839
vn 0.5202665 0.3468433 0.780399
vn 0 -0.2169298 0.9761872
vn 0.2495712 -0.2925321 0.8795952
vn 0.3141004 -0.5584041 0.7678058
vn 0.4717935 -0.3313337 0.7764214
vn 0.6666668 -0.3333348 0.6666659
vn 0.3670933 -0.217509 0.8458819
vn -1 1.907328E-06 5.14144E-15
vn -0.9583151 -0.1277735 0.2555505
vn -0.1672693 0.9464331 -0.2151601
vn -0.09244959 0.9245015 -0.3697974
vn -0.242089 0.9683646 -0.06052284
vn -0.2261061 0.9044327 0.3617699
vn -0.1130529 0.9522164 0.1808849
vn 2.384186E-07 1 -1.907349E-07
vn -0.07275647 0.9850715 -0.09701484
vn -0.1455169 0.9701431 -0.1940287
vn -0.2303721 0.9215094 0.2182144
vn -0.2425304 0.9701438 -1.966052E-06
vn -0.9769993 -0.1059973 0.106
vn -0.9539987 -0.2119966 0.212
vn 0.07763599 0.9805088 0.1797171
vn 0.08192477 0.9830781 0.1638467
vn 0.0733472 0.9779395 0.1955876
vn 0.06153468 0.9845247 0.1640875
vn 0.05525338 0.9819643 0.1799842
vn 0.04897208 0.9794041 0.1958808
vn 0.7236068 -1.450052E-06 -0.4472136
vn 1 -1.907354E-06 -1.559138E-12
vn -0.07808723 0.9685221 -0.156172
vn -0.1561726 0.9370443 -0.3123429
vn -0.1768201 0.9295163 0.2222212
vn -0.1111078 0.8888893 0.4444444
vn -0.9533408 -0.1169892 0.1754863
vn -0.9066816 -0.2339802 0.3509725
vn -0.9615246 -0.2747189 5.731084E-07
vn -0.9148839 -0.1373587 -0.2480692
vn -0.8682432 1.508181E-06 -0.4961389
vn 0.03278789 0.9829239 0.1801589
vn 0.04106696 0.9855618 0.1642603
vn 0.02450883 0.9802861 0.1960575
vn 0.02054716 0.9861857 0.1643641
vn 0.01027452 0.9833833 0.1802399
vn 1.870309E-06 0.9805808 0.1961156
vn -0.4472304 -0.8944188 -6.823874E-06
vn -0.0434854 0.9613907 -0.2624804
vn 2.261839E-07 0.948684 -0.3162258
vn -0.08697101 0.9740974 -0.2087351
vn -0.05555467 0.9325386 0.3306868
vn 0 0.9761868 0.2169316
vn 0.7138972 -1.372023E-06 -0.3491555
vn 0.9873014 -0.09071448 0.05982296
vn 0.9906641 -0.1359241 -0.01045558
vn 0.9906619 -0.1360708 -0.008323629
vn 0.8061513 -0.04540676 -0.2348342
vn 0.9337513 -0.2509599 0.01401614
vn 0.8804501 -0.4402271 0.1760902
vn 0.9558342 -0.1673072 0.009344096
vn 0.9935263 -0.03084728 -0.07402898

usemtl ProBuilderDefault
f 14/16/8 12/15/8 5/14/8
f 13/23/13 12/22/13 11/21/13
f 12/12/7 13/13/7 11/11/7
f 15/19/11 5/18/10 6/17/9
f 15/19/11 14/20/12 5/18/10
f 10/10/6 6/17/9 9/9/5
f 10/10/6 15/19/11 6/17/9
f 14/38/23 15/37/22 10/36/21
f 14/38/23 10/36/21 12/39/24
f 12/39/24 10/36/21 13/40/25
f 22/42/28 24/44/30 23/43/29
f 24/44/30 1/41/26 2/45/31
f 22/42/28 1/41/26 24/44/30
f 22/42/27 1/41/26 22/42/28
f 16/47/34 17/46/33 25/48/35
f 23/43/37 26/49/36 25/48/35
f 17/46/33 23/43/37 25/48/35
f 17/46/33 22/42/32 23/43/37
f 31/57/39 9/56/39 32/58/39
f 54/131/75 35/62/75 36/63/75
f 22/132/27 54/131/27 22/132/27
f 47/144/85 12/140/81 13/139/4
f 60/141/82 12/140/81 47/144/85
f 48/143/84 60/141/82 47/144/85
f 58/142/83 60/141/82 48/143/84
f 25/146/88 60/141/86 58/142/89
f 26/145/87 60/141/86 25/146/88
f 16/147/59 25/146/88 58/142/89
f 4/4/3 2/2/2 1/1/1
f 1/1/1 3/3/2 4/4/3
f 8/8/4 6/6/4 5/5/4
f 5/5/4 7/7/4 8/8/4
f 19/27/14 17/25/14 16/24/14
f 16/24/14 18/26/14 19/27/14
f 21/31/17 13/29/16 11/28/15
f 11/28/15 20/30/16 21/31/17
f 13/35/20 10/34/18 9/33/19
f 9/33/19 11/32/18 13/35/20
f 29/52/38 28/51/38 27/50/38
f 27/50/38 30/53/38 29/52/38
f 8/55/38 7/54/38 28/51/38
f 28/51/38 29/52/38 8/55/38
f 33/60/40 11/59/41 9/56/40
f 9/56/40 31/57/42 33/60/40
f 34/61/44 33/60/43 31/57/44
f 31/57/44 35/62/45 34/61/44
f 35/62/38 31/57/38 32/58/38
f 32/58/38 36/63/38 35/62/38
f 39/66/8 38/65/8 37/64/8
f 37/64/8 40/67/8 39/66/8
f 5/14/8 12/15/8 38/65/8
f 38/65/8 39/66/8 5/14/8
f 28/68/8 39/66/8 40/67/8
f 40/67/8 27/69/8 28/68/8
f 7/70/8 5/14/8 39/66/8
f 39/66/8 28/68/8 7/70/8
f 41/73/46 29/72/47 30/71/46
f 30/71/46 42/74/45 41/73/46
f 6/76/48 8/75/1 29/72/48
f 29/72/48 41/73/49 6/76/48
f 41/78/38 42/77/38 36/80/38
f 36/80/38 32/79/38 41/78/38
f 9/82/51 6/81/50 41/78/38
f 41/78/38 32/79/50 9/82/51
f 43/85/52 21/84/53 20/83/52
f 20/83/52 44/86/54 43/85/52
f 45/87/56 43/85/55 44/86/56
f 44/86/56 46/88/57 45/87/56
f 44/91/38 33/90/38 34/89/38
f 34/89/38 46/92/38 44/91/38
f 20/94/38 11/93/38 33/90/38
f 33/90/38 44/91/38 20/94/38
f 47/97/58 13/96/4 21/95/58
f 21/95/58 43/98/59 47/97/58
f 48/99/59 47/97/59 43/98/59
f 43/98/59 45/100/59 48/99/59
f 50/103/38 49/102/38 4/101/38
f 4/101/38 3/104/38 50/103/38
f 30/53/38 27/50/38 49/102/38
f 49/102/38 50/103/38 30/53/38
f 52/107/8 51/106/8 24/105/8
f 24/105/8 2/108/8 52/107/8
f 40/67/8 37/64/8 51/106/8
f 51/106/8 52/107/8 40/67/8
f 49/109/8 52/107/8 2/108/8
f 2/108/8 4/110/8 49/109/8
f 27/69/8 40/67/8 52/107/8
f 52/107/8 49/109/8 27/69/8
f 53/113/60 50/112/61 3/111/60
f 3/111/60 1/114/45 53/113/60
f 42/74/62 30/71/63 50/112/62
f 50/112/62 53/113/49 42/74/62
f 54/117/65 53/116/64 1/115/38
f 1/115/38 22/118/64 54/117/65
f 36/80/68 42/77/67 53/116/66
f 53/116/66 54/117/67 36/80/68
f 55/119/69 45/87/70 46/88/69
f 46/88/69 56/120/71 55/119/69
f 18/121/73 55/119/72 56/120/73
f 56/120/73 19/122/74 18/121/73
f 56/125/38 57/124/38 17/123/38
f 17/123/38 19/126/38 56/125/38
f 46/92/38 34/89/38 57/124/38
f 57/124/38 56/125/38 46/92/38
f 58/127/59 48/99/59 45/100/59
f 45/100/59 55/128/59 58/127/59
f 16/129/59 58/127/59 55/128/59
f 55/128/59 18/130/59 16/129/59
f 57/133/76 34/61/77 35/62/76
f 35/62/76 54/131/78 57/133/76
f 17/134/79 57/133/63 54/131/79
f 54/131/79 22/132/80 17/134/79
f 59/135/8 38/65/8 12/15/8
f 12/15/8 60/136/8 59/135/8
f 23/137/8 59/135/8 60/136/8
f 60/136/8 26/138/8 23/137/8
f 51/106/8 37/64/8 38/65/8
f 38/65/8 59/135/8 51/106/8
f 24/105/8 51/106/8 59/135/8
f 59/135/8 23/137/8 24/105/8

