# ProBuilder 5.2.3
# https://unity3d.com/unity/features/worldbuilding/probuilder
# 12/2/2024 1:29:26 PM

mtllib ./Rock_3.mtl
o Rock 3

g Block Rock
v 0.4274583 -1.285872E-07 2.294062
v -2.294061 -6.454771E-08 2.427456
v 1.251698E-06 2 2
v -1.999999 2 2
v -2.427461 1.022023E-07 -0.2940621
v -1.999999 2 0
v 0.2940584 3.816281E-08 -0.4274559
v 1.251698E-06 2 0
v -0.5781983 3.500002 1.436074
v -1.93607 3.500001 0.9217944
v -0.0639237 3.500001 0.07820559
v -1.421796 3.500001 -0.4360738
v -0.2122464 -1.954825 0.2753974
v -1.556011 -1.999999 0.2122431
v -0.4439965 -1.999999 1.787757
v -1.787762 -1.999999 1.556011
v -1.99174 -0.9620807 -0.03074931
v 0.04090561 -1.127735 0.08290463
v -0.008273263 -0.9620811 2.051069
v -2.040912 -0.9620811 2.001894
v -0.1772899 -6.99519 -0.04256427
v -2.177278 -6.996527 -0.03757477
v 0.7002815 -4.392325 -0.09732747
v -2.210638 -4.612161 0.7231108
v -2.182456 -6.478891 -1.96942
v -3.06001 -3.85876 -2.088619
v -0.1824533 -6.477554 -1.974409
v -0.1490831 -3.638924 -2.909059
v 0.5284412 -1.079438 0.09584549
v -2.179855 -1.027673 -0.09733841
v 0.4545255 0.1207972 -2.451654
v -2.888152 -1.347219 -2.768483
v 0.4999993 -6.099282 4.341276
v -2.000005 -6.228692 4.824239
v -5.185604E-06 -5.003947 4.117132
v -1.500001 -5.133354 4.600095
v -2.000004 -5.711052 2.892387
v -2.000001 -5.322824 1.443498
v -2.000003 -4.745126 3.151206
v -2.000006 -4.486308 2.185281
v -1.500004 -5.322827 1.443498
v -0.5000031 -5.322826 1.443498
v -1.500003 -4.356899 1.702317
v 0.499999 -4.356901 1.702317
v 0.4999978 -5.322827 1.443498
v 0.4999948 -5.711055 2.892388
v 0.4999975 -4.874537 3.634169
v -0.5000044 -4.262164 3.280616
v -1.500005 -4.262165 3.280616
v -0.4999998 -4.003345 2.314689
v -1.500001 -4.003346 2.314689
v -4.380941E-06 -6.995859 -0.04006517
v -2.000006 -6.995859 -0.04006529
v -8.821487E-06 -7.901725 3.340677
v -2.000003 -7.901724 3.340675
v -0.5000063 -5.711053 2.892388
v -1.500007 -5.711055 2.892388
v -2.000003 -5.676378 0.831126
v -8.523464E-06 -5.67638 0.8311273
v -6.079674E-06 -7.065208 4.082458
v -2.000008 -7.065207 4.082457
v -6.198883E-06 -4.391575 3.763579
v -2.000008 -4.391575 3.763578
v 1.124615 -0.5725395 4.965559
v -2.17259 -0.8189424 5.885151
v -1.999999 -3.873937 1.831725
v -3.124626 0.03443617 2.700296
v -4.678965E-06 -3.873938 1.831727
v 0.1725794 0.2808391 1.780704
v 0.03517359 1.872404 5.50017
v -2.556193 2.007252 4.996908
v 0.5561929 2.543095 2.997112
v -2.035174 2.677942 2.493852

vt 0.3146381 -0.3593368
vt -2.410149 -0.3593368
vt -0.09791046 1.665261
vt -2.095513 1.680477
vt 2.312232 -0.3745553
vt -0.4125531 -0.3745552
vt 1.899686 1.650043
vt 2.410155 -0.0641126
vt -0.3146322 -0.06411266
vt 1.997601 1.960485
vt -1.250197E-06 1.975701
vt 0.4125468 -0.04889543
vt -2.312238 -0.0488956
vt -1.997602 1.990918
vt 0.5781984 1.436076
vt 1.93607 0.9217962
vt 0.06392378 0.0782074
vt 1.421796 -0.436072
vt -0.2800476 0.3230357
vt -1.624571 0.2598624
vt -0.5132275 1.83585
vt -1.856181 1.603029
vt 1.251698E-06 1.168266
vt -1.999999 1.168266
vt -0.5781983 2.77077
vt -1.93607 2.951746
vt 0 1.998186
vt -2 1.998186
vt -0.07820559 3.499549
vt -1.436074 3.521446
vt 2 1.913026
vt 0 1.913026
vt 0.9217944 3.414389
vt -0.4360738 3.436286
vt 1.999999 1.92049
vt -1.251698E-06 1.92049
vt 1.421796 3.482592
vt 0.0639237 3.339027
vt -0.2962007 0.1058832
vt 2.425954 0.07612262
vt 1.991561 -0.9217568
vt -0.04048887 -1.112999
vt 1.557057 -1.988043
vt 0.2136263 -1.961662
vt -2.294027 0.1116382
vt 0.4274796 0.0767564
vt -0.08290134 -1.07795
vt -2.05107 -0.9308366
vt -0.2754145 -1.942442
vt -1.787793 -2.046517
vt -0.05620063 1.017305
vt 2.63938 0.8517296
vt 2.191182 -0.1106825
vt 0.1634156 -0.04864856
vt 1.72276 -1.141229
vt 0.3628073 -1.18274
vt -2.047499 1.098563
vt 0.648205 0.9332675
vt 0.1909367 -0.02454312
vt -1.836871 0.03725436
vt -0.2682965 -1.059726
vt -1.628215 -1.101426
vt 0.3157372 -0.8343911
vt -1.684254 -0.8343472
vt 1.195238 1.768461
vt -1.717866 1.53425
vt 2.689615 -0.07576418
vt 0.6896169 -0.07576466
vt 2.807175 2.424462
vt -0.1059299 2.435798
vt 1.684183 -0.3030014
vt -0.3158226 -0.3030429
vt 2.559628 2.320583
vt -0.3534825 2.575806
vt -0.9982361 0.01106548
vt -2.998235 0.01106596
vt 0.6391652 2.51135
vt -2.273935 2.524008
vt -1.225229 0.998319
vt 1.313524 0.03414977
vt -1.960801 -1.721004
vt 1.357275 -2.358264
vt 0.02546358 1.046441
vt -1.89592 0.4911785
vt -0.5297988 2.967817
vt -2.451168 2.412559
vt 0.4068618 2.021565
vt -2.625448 2.021564
vt 0.4298105 5.344446
vt -2.114045 5.542451
vt 0.2758396 2.614618
vt -2.756464 2.614618
vt 0.6167672 6.434675
vt -2.064338 5.809388
vt 2.554385 2.422351
vt -0.4779215 2.422352
vt 0.9116447 5.712343
vt -1.684204 4.727546
vt 2.516149 2.447207
vt -0.516171 2.447207
vt 1.985142 5.00017
vt -1.244429 5.913277
vt -0.1280601 -1.529521
vt -2.67757 -1.529519
vt -0.5202946 -0.3692799
vt -2.089217 -0.4687252
vt 1.483254 0.06250048
vt -0.01674688 0.0625
vt 1.483253 1.062501
vt 0.4832537 1.0625
vt 1.499997 -9.536743E-07
vt 0.4999975 0
vt 1.499996 1.000002
vt -0.5000037 0.9999993
vt -0.01674616 -0.06249857
vt -1.516747 -0.06249952
vt -0.01674652 0.937501
vt -2.016747 0.9375014
vt 0.4999987 1.5
vt 1.499994 1.5
vt 0.4999937 0.5
vt 1.499989 0.5000005
vt 1.192093E-07 -0.9999995
vt -2 -0.9999996
vt -4.291534E-06 2.5
vt -1.999997 2.499998
vt -0.5000004 1.5
vt -1.499999 1.5
vt 0.5000025 3.000001
vt -1.999997 3.5
vt -1.076332 1.459292
vt -0.7227809 0.3986301
vt -1.78344 1.45929
vt -1.783434 0.7521846
vt 2.001637 0.04746914
vt 2.001638 1.547471
vt 4.06319 0.04746962
vt 3.456851 1.047473
vt 1.499995 0.9486837
vt 0.4999936 0.9486842
vt 1.499992 2.529822
vt -4.768372E-06 2.055483
vt 0.4558483 -4.699579
vt 1.42989 -4.540983
vt 2.036108 -5.19375
vt 0.08803117 -5.510943
vt 2.002471 -5.240082
vt 1.999872 -6.748175
vt -0.0001266003 -6.744722
vt 0.002480924 -5.23663
vt -3.075527 -5.823242
vt -1.626897 -5.324868
vt -0.8249185 -5.645299
vt -4.067052 -7.078752
vt -0.8285197 -5.67614
vt 0.03984451 -6.998891
vt -3.332871 -7.905067
vt -4.072385 -7.066383
vt 1.503107 -5.10676
vt 2.926483 -5.413946
vt 4.1249 -6.792306
vt 0.893675 -5.647066
vt 4.114874 -6.814758
vt 3.373194 -7.648132
vt -0.007086992 -6.745669
vt 0.8639858 -5.431145
vt -1.409262 -4.776896
vt -0.4653478 -4.556145
vt 0.31867 -5.780113
vt -1.56916 -6.221614
vt 0.217311 -5.854795
vt 0.175698 -6.90034
vt -1.819336 -6.820943
vt -1.777731 -5.775398
vt -1.499997 2.384186E-07
vt -1.999997 1.5
vt -1.999997 0
vt -1.999996 1.000003
vt 1.500002 2.384186E-07
vt 1.499994 1.581141
vt 1.999997 4.768372E-06
vt 1.999997 1.106802
vt 1.072884E-06 0.499999
vt 1.311302E-06 1.5
vt 0.7071117 0.5000019
vt 0.7071065 1.500002
vt -0.4999946 2.384186E-07
vt -0.4999975 1.5
vt 0.5000025 2.384186E-07
vt 0.623498 1.570515
vt 0.4653853 -0.00270009
vt -0.483297 1.04611
vt -0.4832977 0.09264708
vt 0.9213822 1.028524
vt 0.288929 2.077333
vt -0.1854148 1.552929
vt 1.155478 1.562503
vt 1.155478 0.5625019
vt 0.03744364 2.062497
vt 0.03744984 0.06249714
vt -0.4999976 1.5
vt 0.4999972 1.5
vt -1.192093E-07 -3.33786E-06
vt -7.152557E-07 0.9999995
vt -0.5778557 1.566105
vt -0.4197435 -0.007110596
vt 0.528941 1.041699
vt 0.4999936 1.414217
vt 1.499994 1.414217
vt -0.5000037 0.7071095
vt 1.499996 0.7071124
vt -5.960464E-07 0.08621264
vt -2.000001 0.08621264
vt 1.12462 4.089934
vt -2.172583 4.130974
vt 1.962365 -0.07469225
vt -0.0376358 -0.07469273
vt 3.086982 3.929032
vt -0.2102177 3.970069
vt 3.124617 4.003724
vt -0.1725862 4.044761
vt 0.5002117 -0.1367798
vt -1.49979 -0.1367798
vt 1.624829 3.866942
vt -1.672376 3.907979
vt -0.03517729 2.056187
vt 2.556185 1.535172
vt -0.5561959 -0.5351686
vt 2.035166 -1.056182
vt -3.576279E-07 2
vt -1.999999 1.999999
vt 0.4505166 3.677564
vt -2.981379 3.677564
vt -0.5638756 6.211623
vt -2.909003 6.41087
vt 0.8471742 4.159631
vt -2.584725 4.15963
vt 0.174444 6.668025
vt -2.170672 6.568348
vt 2.448592 3.925506
vt -0.9833066 3.925507
vt 0.8151119 6.426554
vt -1.530003 6.461842
vt 2.957388 4.212954
vt -0.4745029 4.212953
vt 1.66558 6.772031
vt -0.6795446 6.511524

vn 0.04836107 0.1554065 0.9866661
vn 0.02418054 0.182207 0.9822901
vn 0 0.2090076 0.977914
vn -0.9866659 0.1554072 0.04836316
vn -0.9822897 0.1822089 0.02418158
vn -0.9779134 0.2090106 0
vn -0.04836089 0.1554068 -0.9866661
vn -0.02418044 0.1822072 -0.98229
vn 0 0.2090076 -0.977914
vn 0.9866663 0.1554047 -0.04836317
vn 0.9822901 0.1822064 -0.02418159
vn 0.9779139 0.2090081 0
vn 2.091753E-08 1 -5.188268E-07
vn 0.03473918 -0.9990956 -0.02451929
vn 0.01736949 -0.9995478 -0.01225957
vn -2.02016E-07 -1 1.425851E-07
vn 0 0.3519033 0.9360364
vn -0.1459462 0.4591604 0.8533654
vn -0.2918923 0.5664176 0.7706944
vn 0.9990932 0.04257796 0
vn 0.9188319 0.2426096 0.1587986
vn 0.8385706 0.4426413 0.3175973
vn -0.9990931 0.0425803 0
vn -0.9523613 0.1459789 -0.1714977
vn -0.9056296 0.2493776 -0.3429954
vn 0 -0.2791583 -0.9602451
vn 0.1767337 -0.1077183 -0.9467596
vn 0.3534674 0.06372172 -0.933274
vn -0.01497483 -0.3494101 -0.9336627
vn -0.04694834 -0.2834167 -0.957847
vn 0.01699868 -0.4154035 -0.9094784
vn 0.03723762 -0.2129465 -0.9763541
vn 0.04545105 -0.2274245 -0.9725847
vn 0.05366449 -0.2419025 -0.9688154
vn 0.936785 -0.331626 0.005368007
vn 0.9698027 -0.2392131 -0.0475366
vn 0.9037672 -0.4240389 0.05827262
vn 0.9581769 -0.2821749 0.04769191
vn 0.9305229 -0.3465943 0.08688421
vn 0.902869 -0.4110137 0.1260765
vn -0.9345626 -0.3455265 0.01255683
vn -0.9606868 -0.2736118 0.04708973
vn -0.9084383 -0.417441 -0.02197607
vn -0.9735331 -0.2273294 -0.02355074
vn -0.9355057 -0.3201685 -0.0891663
vn -0.8974783 -0.4130076 -0.1547819
vn 0.01257138 -0.3369662 0.9376649
vn 0.04721025 -0.2646534 0.9631873
vn -0.0220675 -0.409279 0.9121424
vn -0.02349952 -0.2365554 0.9713338
vn -0.08880838 -0.3290234 0.932487
vn -0.1541172 -0.4214914 0.8936402
vn 0.002480748 0.02019883 0.9997929
vn 0.1411753 -0.1340184 0.9577701
vn 0.2798698 -0.2882356 0.9157473
vn -0.999906 -0.01367609 -0.000984045
vn -0.9658149 -0.1583122 0.09964894
vn -0.931724 -0.3029483 0.2002819
vn -0.002460899 -0.04626908 -0.9989259
vn -0.1199947 -0.1737712 -0.9612027
vn -0.2375285 -0.3012733 -0.9234796
vn 0.9998836 -0.01385684 -0.006385403
vn 0.9427343 -0.1598951 -0.1779383
vn 0.885585 -0.3059334 -0.3494911
vn -0.01313483 0.9044003 0.4264827
vn -0.2075004 0.9100471 0.2117503
vn -0.4018659 0.9156937 -0.00298204
vn 1.196093E-07 -0.9659259 -0.2588186
vn 0.2739663 -0.04181486 0.9608299
vn 0.104428 0.09068093 0.9667155
vn -0.06511034 0.2231767 0.9726011
vn 0.9423634 -0.1129774 -0.3149402
vn 0.9704987 -0.03045929 -0.1596942
vn 0.9986341 0.0520588 -0.004448238
vn -0.9483004 0.07852852 0.3075057
vn -0.9551852 0.104593 0.2734919
vn -0.9620701 0.1306575 0.239478
vn -0.2468688 -0.2374293 -0.9395122
vn -0.1013552 -0.06188367 -0.9660249
vn 0.04415837 0.1136619 -0.9925377
vn 0.1690306 0.2710721 0.9476015
vn 0.2352713 0.1640988 0.9496755
vn 0.3015121 0.0571255 0.9517495
vn -1 1.64513E-06 -1.533821E-06
vn 4.44055E-07 0.2588187 -0.9659259
vn 1 -1.660558E-06 1.591394E-06
vn -9.82885E-07 0.9659259 0.2588188
vn 0.6666648 -0.4945228 0.5576784
vn 0.7805455 -0.03127244 0.3367117
vn 0.8944262 0.4319779 0.115745
vn -0.9701427 0.06277366 -0.2342704
vn -0.9076475 0.2544204 0.03012458
vn -0.8451523 0.4460671 0.2945196
vn -9.272182E-07 0.8345124 0.5509892
vn 0.06509486 0.8068478 0.5820578
vn 0.1301906 0.7791831 0.6131265
vn -4.682767E-07 0.8660249 -0.500001
vn 2.394904E-07 0.8660257 -0.4999996
vn 4.954955E-07 0.5509899 -0.8345119
vn 0.821849 0.5205019 0.1879494
vn 0.7492716 0.6090273 0.2601497
vn -0.8218477 0.5205032 0.1879481
vn -0.8944278 0.4319746 0.1157451
vn -0.7492675 0.6090317 0.2601511
vn -8.303379E-07 0.6601321 0.7511495
vn -8.515228E-07 -0.6634698 0.748203
vn -2.308867E-06 -0.2588186 0.9659259
vn -0.20412 0.5783262 -0.7587635
vn -0.4082441 0.6056631 -0.6830147
vn -0.7071023 0.683018 0.1830103
vn -0.3015104 0.5253478 -0.7956765
vn -0.1507553 0.3920833 -0.8808012
vn 0.3015111 0.795675 0.5253497
vn 0.4472132 0.86395 0.2314966
vn 0.3015104 -0.5253478 0.7956765
vn -3.411307E-07 -0.3002155 0.9538714
vn 0.1343003 -0.3912112 0.893868
vn 0.268601 -0.482207 0.8338645
vn -0.9990706 -0.04163424 -0.01116053
vn -0.9646627 -0.1762972 0.09179761
vn -0.9302548 -0.3109602 0.1947557
vn 8.081319E-07 0.216941 -0.9761847
vn -0.1343002 0.1081345 -0.969718
vn -0.2686011 -0.0006719505 -0.9632512
vn 0.9990705 -0.04163711 -0.01115582
vn 0.9646628 -0.1067789 -0.1676495
vn 0.9302551 -0.1719206 -0.3241432
vn 0.2736787 -0.0874915 0.9578336
vn 0.05206928 0.09349061 0.9521823
vn -0.1695401 0.2744727 0.9465309
vn 0.9575372 -0.007398354 -0.288215
vn 0.9280404 0.166095 -0.005094022
vn 0.8985437 0.3395883 0.2780269
vn -0.9603499 -0.04381531 0.2753331
vn -0.9417461 0.1647189 0.0915953
vn -0.9231424 0.3732532 -0.09214254
vn -0.2710027 0.03656849 -0.9618837
vn -0.03887576 0.2377989 -0.9196637
vn 0.1932512 0.4390292 -0.8774436

usemtl ProBuilderDefault
f 35/195/113 47/196/113 48/194/113
f 46/202/68 33/129/68 56/201/68
f 43/204/84 41/203/84 51/119/84
f 42/206/115 44/207/115 50/205/115
f 4/4/3 2/2/2 1/1/1
f 1/1/1 3/3/2 4/4/3
f 6/3/6 5/6/5 2/5/4
f 2/5/4 4/7/5 6/3/6
f 8/11/9 7/9/8 5/8/7
f 5/8/7 6/10/8 8/11/9
f 3/14/12 1/13/11 7/12/10
f 7/12/10 8/11/11 3/14/12
f 12/18/13 10/16/13 9/15/13
f 9/15/13 11/17/13 12/18/13
f 16/22/16 14/20/15 13/19/14
f 13/19/14 15/21/15 16/22/16
f 10/26/19 4/24/18 3/23/17
f 3/23/17 9/25/18 10/26/19
f 9/30/22 3/28/21 8/27/20
f 8/27/20 11/29/21 9/30/22
f 12/34/25 6/32/24 4/31/23
f 4/31/23 10/33/24 12/34/25
f 11/38/28 8/36/27 6/35/26
f 6/35/26 12/37/27 11/38/28
f 18/42/31 17/41/29 5/40/30
f 5/40/30 7/39/29 18/42/31
f 13/44/34 14/43/33 17/41/32
f 17/41/32 18/42/33 13/44/34
f 19/48/37 18/47/35 7/46/36
f 7/46/36 1/45/35 19/48/37
f 15/50/40 13/49/39 18/47/38
f 18/47/38 19/48/39 15/50/40
f 5/51/41 17/54/43 20/53/41
f 20/53/41 2/52/42 5/51/41
f 17/54/45 14/56/46 16/55/45
f 16/55/45 20/53/44 17/54/45
f 2/57/47 20/60/49 19/59/47
f 19/59/47 1/58/48 2/57/47
f 20/60/51 16/62/52 15/61/51
f 15/61/51 19/59/50 20/60/51
f 24/66/55 22/64/54 21/63/53
f 21/63/53 23/65/54 24/66/55
f 26/70/58 25/68/57 22/67/56
f 22/67/56 24/69/57 26/70/58
f 28/74/61 27/72/60 25/71/59
f 25/71/59 26/73/60 28/74/61
f 23/78/64 21/76/63 27/75/62
f 27/75/62 28/77/63 23/78/64
f 32/82/67 30/80/66 29/79/65
f 29/79/65 31/81/66 32/82/67
f 22/86/68 25/84/68 27/83/68
f 27/83/68 21/85/68 22/86/68
f 30/90/71 24/88/70 23/87/69
f 23/87/69 29/89/70 30/90/71
f 29/94/74 23/92/73 28/91/72
f 28/91/72 31/93/73 29/94/74
f 32/98/77 26/96/76 24/95/75
f 24/95/75 30/97/76 32/98/77
f 31/102/80 28/100/79 26/99/78
f 26/99/78 32/101/79 31/102/80
f 36/106/83 34/104/82 33/103/81
f 33/103/81 35/105/82 36/106/83
f 40/110/84 38/108/84 37/107/84
f 37/107/84 39/109/84 40/110/84
f 44/114/85 42/112/85 41/111/85
f 41/111/85 43/113/85 44/114/85
f 47/118/86 46/116/86 45/115/86
f 45/115/86 44/117/86 47/118/86
f 51/122/87 49/120/87 48/119/87
f 48/119/87 50/121/87 51/122/87
f 55/126/68 53/124/68 52/123/68
f 52/123/68 54/125/68 55/126/68
f 34/130/68 57/128/68 56/127/68
f 56/127/68 33/129/68 34/130/68
f 33/134/90 46/132/89 47/131/88
f 47/131/88 35/133/89 33/134/90
f 36/138/93 49/136/92 57/135/91
f 57/135/91 34/137/92 36/138/93
f 35/142/96 48/140/95 49/139/94
f 49/139/94 36/141/95 35/142/96
f 59/146/98 58/145/98 41/144/98
f 41/144/98 42/143/97 59/146/98
f 52/149/99 53/148/99 58/147/99
f 58/147/99 59/150/99 52/149/99
f 60/154/100 59/153/101 42/152/100
f 42/152/100 56/151/90 60/154/100
f 54/157/86 52/156/86 59/155/86
f 59/155/86 60/158/86 54/157/86
f 61/161/102 57/160/103 41/159/102
f 41/159/102 58/162/104 61/161/102
f 58/166/84 53/165/84 55/164/84
f 55/164/84 61/163/84 58/166/84
f 61/170/105 60/169/105 56/168/105
f 56/168/105 57/167/105 61/170/105
f 55/173/106 54/172/106 60/171/106
f 60/171/106 61/174/106 55/173/106
f 38/177/68 41/175/68 57/128/68
f 57/128/68 37/176/68 38/177/68
f 37/177/107 57/175/107 49/128/107
f 49/128/107 39/178/107 37/177/107
f 40/182/109 51/180/108 41/179/99
f 41/179/99 38/181/108 40/182/109
f 39/186/110 49/184/110 51/183/110
f 51/183/110 40/185/110 39/186/110
f 46/119/68 56/188/68 42/187/68
f 42/187/68 45/189/68 46/119/68
f 45/193/85 42/191/112 50/190/111
f 50/190/111 44/192/112 45/193/85
f 44/200/114 50/198/114 48/197/114
f 48/197/114 47/199/114 44/200/114
f 43/211/98 51/209/97 50/208/97
f 50/208/97 44/210/97 43/211/98
f 65/215/118 63/213/117 62/212/116
f 62/212/116 64/214/117 65/215/118
f 67/219/121 66/217/120 63/216/119
f 63/216/119 65/218/120 67/219/121
f 69/221/124 68/203/123 66/181/122
f 66/181/122 67/220/123 69/221/124
f 64/225/127 62/223/126 68/222/125
f 68/222/125 69/224/126 64/225/127
f 73/229/87 71/227/87 70/226/87
f 70/226/87 72/228/87 73/229/87
f 63/231/68 66/177/68 68/203/68
f 68/203/68 62/230/68 63/231/68
f 71/235/130 65/233/129 64/232/128
f 64/232/128 70/234/129 71/235/130
f 70/239/133 64/237/132 69/236/131
f 69/236/131 72/238/132 70/239/133
f 73/243/136 67/241/135 65/240/134
f 65/240/134 71/242/135 73/243/136
f 72/247/139 69/245/138 67/244/137
f 67/244/137 73/246/138 72/247/139

