# ProBuilder 5.2.3
# https://unity3d.com/unity/features/worldbuilding/probuilder
# 12/2/2024 1:27:34 PM

mtllib ./Rock_2.mtl
o Rock 2

g Rock 2
v 1.375E-05 11 1
v -0.9999862 11 0.5
v 1.25E-05 10 -1
v -1.499987 10 -1
v 1 -1.249998E-06 -1
v -2 2.500005E-06 -1
v 1.5 -0.03125187 1
v -2 2.500003E-06 1
v -1.999995 4.000001 2.5
v 5.000002E-06 4.000001 2.5
v -1.999995 4.000001 1.5
v 5.000002E-06 4.000001 1.5
v 1.500004 3.031248 1.5
v -0.9999965 2.750002 1.5
v 1.000004 3.499999 5
v 2 -2.499995E-06 5
v -2 2.500003E-06 5
v -1.999996 3.500002 5
v -5.5 6.875006E-06 1
v -5 6.250003E-06 -1
v -4.999997 2.750006 -1
v -4.999996 3.500006 1
v 1.000004 3.374999 -1
v -1.999998 1.500002 -5
v -2 2.500003E-06 -5
v 0 2.387424E-12 -5
v 1.875001E-06 1.500001 -5
v -4.999996 3.500006 5
v -5 6.250003E-06 5
v -5 6.250003E-06 -4
v -4.999998 1.500005 -3
v -2 2.500003E-06 -3
v 1 -1.249998E-06 -3
v 7.187499E-06 5.749999 -1
v -4.499995 4.000006 -1.5
v -1.999993 5.750001 -3
v -4.499995 4.000006 -2.5
v 1.000002 1.5 -4
v 7.187501E-06 5.75 -2.5
v -1.999998 1.500002 -3.5
v -1.499997 2.750002 3.25
v -3.999995 4.000005 3
v -4.499996 3.500006 2
v -1.249997 2.375001 2.375
v -5 6.250003E-06 2
v -2 2.500003E-06 2
v -6 7.500005E-06 3
v -2 2.500003E-06 3
v 0 4.324575E-12 3
v 4.0625E-06 3.25 3
v 1.5 -0.03125187 2
v -4.999996 3.500006 4
v -1.749996 3.125002 4.125
v -5.5 6.875006E-06 4
v -2 2.500003E-06 4
v 1.000004 3.374999 4
v 2 -2.499995E-06 4
v -4.499996 3.000005 -1.5
v 6.5625E-06 5.25 -3
v -1.499996 3.500002 -3.5
v -4.499996 3.500005 -3
v -2.499997 2.500003 -3.5
v 3.125001E-06 2.500001 -3.5
v -4.999997 2.500005 -3
v 0.1046902 12.39546 2.2453
v -1.817034 12.601 1.730782
v 0.6240161 13.71087 0.8310847
v -1.297702 13.91641 0.3165716
v -1.623973 11.10854 0.4134822
v -1.104647 12.42395 -1.000733
v 0.297751 10.903 0.9280007
v 0.8170837 12.21841 -0.4862106

vt 2.667886 5.557187
vt 3.638029 5.001468
vt 2.425352 3.334312
vt 3.880565 3.175534
vt 1 -0.999878
vt -2 -0.999878
vt 1.5 1.000366
vt -2 0.999878
vt -1.254568 4.713544
vt -0.8288289 10.69503
vt 0.2687541 10.76069
vt 0.6718569 4.547746
vt 1.5 4.409286
vt -1 10.00295
vt 0.5 10.81377
vt 2.5 4.409286
vt -5.000002E-06 4.247689
vt -1.25E-05 8.487035
vt 1.499987 8.487034
vt 1.999995 4.247689
vt -2.489088 3.868967
vt -0.9956365 10.46649
vt 0.995634 9.458716
vt -1.493453 3.839491
vt 1.847934 3.204762
vt -0.560098 3.144479
vt 1.000004 3.499999
vt 2 -2.499995E-06
vt -2 2.500003E-06
vt -1.999996 3.500002
vt 1.292789 -0.768059
vt -0.7310945 -0.7126581
vt -0.7310947 2.009781
vt 1.266042 2.767374
vt -1 2.936916
vt 1.5 2.922071
vt -1.000004 2.566989
vt 1.999998 1.500002
vt 0 2.387424E-12
vt -1.875001E-06 1.500001
vt 0.9023042 2.858348
vt -1.633449 2.448659
vt 0.9023046 -0.343917
vt -1.135631 -0.4718373
vt -4.999996 3.500006
vt -5 6.250003E-06
vt -1.344289 -1.518563
vt 0.7097014 1.015553
vt 4.688175 -1.518563
vt 4.61047 0.3325174
vt -2 1
vt -2 -1
vt -5.5 1
vt -5 -1
vt 0.3162278 3.3834E-07
vt 0.316226 1.5
vt 3.478506 4.088341E-06
vt 3.794732 1.500004
vt 1 -1
vt -2 -3
vt 1 -3
vt -5 -4
vt -2.304707 -2.888114
vt 2.519434 -3.426783
vt -0.4723914 -5.042789
vt 2.519434 -4.354997
vt -0.9999998 2.75
vt -0.9999998 1.811659E-07
vt -3 1.499999
vt -4 1.811658E-07
vt 1 -1.375327E-08
vt 1 3.375
vt 3 -1.375327E-08
vt 4 1.500001
vt -5.359624E-06 -1.000004
vt -5.359625E-06 -2.500004
vt 1.999995 -3.000004
vt -2 -5
vt -2.98428E-18 -5
vt 2 -3.5
vt 5 -3
vt 2 -5
vt 2.236068 0.6388777
vt 3.130494 2.204127
vt 4.472136 0.638879
vt 4.472135 2.076352
vt -1.000001 -4
vt 2.096322 3.389544
vt 4.817906 3.179961
vt 5.188458 2.144169
vt 1.766242 2.497025
vt 5.674854 1.138873
vt 1.609927 1.650251
vt -5 2
vt -2 2
vt -6 3
vt -2 3
vt 1.891648 -1.429044
vt 1.084254 -1.171236
vt 1.172677 2.350666
vt 2.245338 2.908187
vt 0.01159278 -1.24124
vt 0.1000159 2.280662
vt -2.999861 0.004073614
vt -2.999861 3.221717
vt -1.514401 2.791982
vt -2.014378 -0.2393494
vt -1.014424 -0.2407073
vt 0.3709959 1.538431
vt -2.129676 1.534775
vt 0.6973179 2.409224
vt -0.714458 3.041859
vt 0.8587647 3.289737
vt -1.999995 1
vt -1.999995 2
vt 1.500066 2
vt -1.999995 3
vt -9.658159E-15 3
vt 2.756482 5.174582
vt 5.674854 5.131003
vt 5.674854 4.132971
vt 2.426402 4.282063
vt -5.5 4
vt -2 4
vt -5 5
vt -2 5
vt 4.03697 -1.289037
vt 2.964309 -1.35904
vt 3.052732 2.162862
vt 4.036971 2.123595
vt -5.019062 -0.2747124
vt -5.009415 3.331193
vt -4.009461 3.206079
vt -4.019108 -0.2760703
vt -1.717475 4.04047
vt 1.020212 4.17025
vt -1.744954 5.042002
vt 1.181659 5.050764
vt -1.999995 4
vt 1.999995 4
vt -1.999995 5
vt 1.999995 5
vt -4.66502 2.987043
vt -4.66502 3.82768
vt -0.1392332 5.369983
vt 0.8510224 3.448884
vt -0.1082443 5.094942
vt -0.09020528 5.619095
vt 1.890453 5.590752
vt 1.372742 3.319645
vt -3.225795 2.802558
vt -2.726447 3.292934
vt -1.727751 3.285207
vt -1.727751 2.29673
vt 0.213829 2.449813
vt 0.8545755 4.703809
vt 3.374958 2.91315
vt 3.204117 2.312379
vt 0.6123872 2.839527
vt 0.9435655 5.387998
vt 2.358917 5.239481
vt 2.830701 4.712844
vt -5.09053 2.471017
vt 2.372092 2.319087
vt -0.1262805 2.323556
vt 1.872419 1.321209
vt -1.143668 1.301805
vt -1.253925 1.970159
vt -3.251318 0.750017
vt -3.251318 1.738494
vt 3.674025 1.301214
vt 1.153646 1.396353
vt 3.674026 0.3323444
vt 0.683739 0.4697777
vt 3.302486 2.039116
vt 3.443092 0.7532493
vt -1.999999 0
vt -5.960464E-07 2.000005
vt 2 0
vt 2.000002 1.999998
vt 2.000002 2
vt -1.907349E-06 1.999997
vt 1.999993 2.000002

vn 0.2182186 0.8728716 -0.4364355
vn 0.109109 0.8524609 -0.495568
vn -5.290032E-07 0.8320501 -0.5547004
vn -1.249848E-06 -0.9998779 -0.01562309
vn -0.004465357 -0.9999191 -0.007811546
vn -0.008929465 -0.9999601 -1.136823E-12
vn 0 0.2747211 0.961524
vn -0.2196094 0.2314792 0.919981
vn -0.4392189 0.1882373 0.8784381
vn -0.9965457 0.08304674 0
vn -0.979398 0.137749 0.09622497
vn -0.9622502 0.1924512 0.1924499
vn 1.222659E-07 -0.3846155 -0.9230769
vn 1 -1.25E-06 6.721575E-14
vn 0 -0.718239 0.6957964
vn 0.03320836 -0.6543087 0.7500929
vn 0.06641671 -0.5903783 0.8043894
vn 0 0 1
vn -0.9793513 0.07061265 -0.1477471
vn -0.9701425 1.177527E-06 -0.2425356
vn -0.9885601 0.1412241 -0.05295859
vn -0.6154579 -0.4923656 -0.6154574
vn -0.6981636 -0.5585301 -0.3077287
vn -0.7808692 -0.6246945 0
vn 0 0.9701422 -0.2425366
vn 0 0 -1
vn 0.5425271 0.8400384 0
vn 0.5425204 0.840028 0.003500003
vn 0.5425137 0.8400177 0.007000005
vn 0.9755307 0.01566217 -0.217206
vn 0.9701425 -1.199333E-06 -0.2425356
vn 0.9809191 0.03132554 -0.1918764
vn -0.1022101 0.9812281 0.1635378
vn 0.05607115 0.9478967 -0.08971222
vn 0.2143524 0.9145654 -0.3429623
vn -1.250001E-06 -1 -1.136868E-12
vn -0.3162278 4.021045E-07 -0.9486833
vn -0.4006492 0.2425362 -0.838145
vn -0.4850706 0.485072 -0.7276068
vn -0.3720446 0.8503911 0.3720454
vn -0.4727527 0.834812 0.1860227
vn -0.5734609 0.8192329 0
vn -1 1.213767E-06 -4.334919E-08
vn 3.178914E-07 1 6.357829E-07
vn 0.8571425 -0.2857153 -0.4285714
vn 0.7821246 -0.1428581 -0.5678391
vn 0.7071068 -8.991323E-07 -0.7071068
vn 0.378224 0.8047608 -0.4248784
vn 0.4136985 0.7145681 -0.5641329
vn 0.3427495 0.8949535 -0.2856238
vn 0.3398054 0.9250219 -0.1699023
vn 0.2281197 0.9127188 0.1246287
vn 0.116434 0.9004157 0.4191596
vn -0.7881986 0.2684708 -0.2426542
vn -0.7035263 0.1005046 -0.7035265
vn -0.872871 0.4364369 0.2182181
vn -0.8872138 0.1267459 0.443607
vn 0.6293557 0.06719975 0.7651566
vn 0.7071068 -8.818417E-07 0.7071068
vn 0.5516046 0.1344004 0.8232065
vn -0.1040133 0.9245746 0.3665284
vn -0.3421689 0.8184798 -0.4615315
vn -0.3455737 0.8198043 -0.4565762
vn -0.3489786 0.8211288 -0.4516208
vn -0.004464646 -0.9999003 0.008926792
vn -0.008928042 -0.9998007 0.01785358
vn 0.06029131 0.962224 -0.1808702
vn 0.1205813 0.924448 -0.3617405
vn 0.07940618 0.8575751 0.5081925
vn 0.2663442 0.8582116 0.1348118
vn 0.4532822 0.8588481 -0.238569
vn -0.9436069 0.06337358 0.2218035
vn -0.7726534 0.256183 -0.1342524
vn -0.8164961 0.4082493 0.4082483
vn -0.7288107 0.1041167 -0.676753
vn 0.9598782 0.2793226 -0.01715999
vn 0.9609579 0.2745581 -0.03431999
vn 0.9587985 0.2840872 0
vn 0.6799048 0.2014523 -0.7050861
vn 0.5635592 0.1007259 -0.7997566
vn 0.4472136 -5.59017E-07 -0.8944272
vn -0.1936982 0.9234344 -0.123864
vn -0.2863305 0.9432105 0.1684303
vn -0.1010659 0.9036582 -0.4161582
vn -0.09540661 0.9877515 -0.1234689
vn -0.04770276 0.9534483 -0.2586941
vn 1.095706E-06 0.919145 -0.3939193
vn -0.09053575 8.634157E-08 0.9958932
vn -0.09275247 -0.01999341 0.995285
vn -0.09496919 -0.0399869 0.9946768
vn 0.1156222 0.4624876 -0.8340679
vn 0.174078 0.6963105 -0.6963107
vn 0.05716633 0.2286648 -0.9718252
vn -0.1617229 0.1796926 -0.9703382
vn -0.3493083 0.3881215 -0.7834445
vn -0.5368938 0.5965504 -0.5965508
vn 0.9173291 0.3862426 -0.09656076
vn 0.9586645 0.1931207 -0.04828038
vn -0.09640264 0.9254761 0.366334
vn 0.05920902 0.08881334 -0.9884737
vn 0.118418 0.1776267 -0.9769473
vn -0.08192302 0.1826453 -0.9387528
vn -0.1638465 -0.08192295 -0.9830784
vn 4.26496E-07 0.4472135 -0.8944272
vn -0.7635226 0.4216381 -0.05270486
vn -0.5270452 0.8432747 -0.1054095
vn -0.8846513 0.4423267 0.1474419
vn -0.1622213 0.1622216 -0.9733285
vn -0.1787006 0.1299059 -0.9746143
vn -0.1951799 0.0975902 -0.9759001
vn -0.1961161 2.805464E-07 -0.9805807
vn -0.1799813 -0.04096134 -0.9818295
vn 0.9172695 0.07124309 -0.3918432
vn 0.5036563 0.7325891 -0.4578684
vn -0.096531 0.7462328 0.658649
vn -0.9608619 0.1027715 -0.2572594
vn 0.09653126 -0.746233 -0.6586486
vn 0.9608617 -0.1027719 0.2572598
vn 0.2596637 0.6577044 -0.7071065
vn -0.2596646 -0.657705 0.7071058

usemtl ProBuilderDefault
f 12/17/25 23/37/25 11/20/25
f 39/76/44 36/77/44 34/75/44
f 30/62/36 25/78/36 32/60/36
f 24/82/44 31/81/44 40/80/44
f 51/107/14 7/108/14 13/106/14
f 44/111/61 13/110/61 14/109/61
f 58/143/99 21/163/99 23/146/99
f 61/151/107 64/170/107 58/154/107
f 23/159/113 63/175/113 59/162/113
f 23/159/114 38/176/114 63/175/114
f 4/4/3 2/2/2 1/1/1
f 1/1/1 3/3/2 4/4/3
f 8/8/6 6/6/5 5/5/4
f 5/5/4 7/7/5 8/8/6
f 9/9/7 10/12/8 1/11/9
f 1/11/9 2/10/8 9/9/7
f 4/14/11 11/13/10 9/16/11
f 9/16/11 2/15/12 4/14/11
f 12/17/13 11/20/13 4/19/13
f 4/19/13 3/18/13 12/17/13
f 3/23/14 1/22/14 10/21/14
f 10/21/14 12/24/14 3/23/14
f 14/26/17 13/25/16 10/12/15
f 10/12/15 9/9/16 14/26/17
f 17/29/18 16/28/18 15/27/18
f 15/27/18 18/30/18 17/29/18
f 20/32/20 19/31/19 22/34/21
f 22/34/21 21/33/19 20/32/20
f 23/35/22 14/36/23 9/16/24
f 9/16/24 11/13/23 23/35/22
f 26/39/26 25/28/26 24/38/26
f 24/38/26 27/40/26 26/39/26
f 13/42/28 23/41/29 12/24/28
f 12/24/28 10/21/27 13/42/28
f 7/44/30 5/43/31 23/41/30
f 23/41/30 13/42/32 7/44/30
f 29/46/18 17/29/18 18/30/18
f 18/30/18 28/45/18 29/46/18
f 22/50/35 14/48/34 23/47/33
f 23/47/33 21/49/34 22/50/35
f 20/54/36 6/52/36 8/51/36
f 8/51/36 19/53/36 20/54/36
f 31/58/39 24/56/38 25/55/37
f 25/55/37 30/57/38 31/58/39
f 33/61/36 5/59/36 6/52/36
f 6/52/36 32/60/36 33/61/36
f 32/60/36 6/52/36 20/54/36
f 20/54/36 30/62/36 32/60/36
f 37/66/42 35/64/41 34/63/40
f 34/63/40 36/65/41 37/66/42
f 30/70/43 20/68/43 21/67/43
f 21/67/43 31/69/43 30/70/43
f 38/74/14 23/72/14 5/71/14
f 5/71/14 33/73/14 38/74/14
f 26/79/36 33/61/36 32/60/36
f 32/60/36 25/78/36 26/79/36
f 27/86/47 38/84/46 33/83/45
f 33/83/45 26/85/46 27/86/47
f 24/82/44 40/80/44 38/87/44
f 38/87/44 27/79/44 24/82/44
f 43/90/48 42/89/49 41/88/48
f 41/88/48 44/91/50 43/90/48
f 22/92/52 43/90/51 44/91/52
f 44/91/52 14/93/53 22/92/52
f 46/95/36 45/94/36 19/53/36
f 19/53/36 8/51/36 46/95/36
f 48/97/36 47/96/36 45/94/36
f 45/94/36 46/95/36 48/97/36
f 43/100/54 45/99/55 47/98/54
f 47/98/54 42/101/56 43/100/54
f 22/103/57 19/102/57 45/99/57
f 45/99/57 43/100/57 22/103/57
f 13/106/58 50/105/59 49/104/58
f 49/104/58 51/107/60 13/106/58
f 50/112/63 13/110/62 44/111/63
f 44/111/63 41/113/64 50/112/63
f 51/116/6 46/115/6 8/114/6
f 8/114/6 7/7/6 51/116/6
f 49/118/65 48/117/36 46/115/65
f 46/115/65 51/116/66 49/118/65
f 52/121/67 28/120/44 18/119/67
f 18/119/67 53/122/68 52/121/67
f 42/89/70 52/121/69 53/122/70
f 53/122/70 41/88/71 42/89/70
f 55/124/36 54/123/36 47/96/36
f 47/96/36 48/97/36 55/124/36
f 17/126/36 29/125/36 54/123/36
f 54/123/36 55/124/36 17/126/36
f 52/129/72 54/128/57 29/127/72
f 29/127/72 28/130/43 52/129/72
f 42/101/73 47/98/74 54/128/73
f 54/128/73 52/129/75 42/101/73
f 56/133/76 15/132/77 16/131/76
f 16/131/76 57/134/78 56/133/76
f 50/105/80 56/133/79 57/134/80
f 57/134/80 49/104/81 50/105/80
f 56/135/82 50/112/83 41/113/82
f 41/113/82 53/136/84 56/135/82
f 15/137/86 56/135/85 53/136/86
f 53/136/86 18/138/87 15/137/86
f 57/140/36 55/139/36 48/117/36
f 48/117/36 49/118/36 57/140/36
f 16/142/36 17/141/36 55/139/36
f 55/139/36 57/140/36 16/142/36
f 58/143/88 23/146/89 34/145/90
f 34/145/90 35/144/89 58/143/88
f 59/147/91 60/150/93 36/149/91
f 36/149/91 39/148/92 59/147/91
f 37/152/43 61/151/43 58/154/43
f 58/154/43 35/153/43 37/152/43
f 60/155/94 61/158/95 37/157/96
f 37/157/96 36/156/95 60/155/94
f 23/159/97 59/162/98 39/161/14
f 39/161/14 34/160/98 23/159/97
f 63/165/100 62/164/26 60/150/100
f 60/150/100 59/147/101 63/165/100
f 38/167/102 40/166/103 62/164/102
f 62/164/102 63/165/104 38/167/102
f 64/170/105 31/169/43 21/168/105
f 21/168/105 58/154/106 64/170/105
f 62/172/109 64/171/110 61/158/109
f 61/158/109 60/155/108 62/172/109
f 31/173/112 64/171/111 62/172/112
f 62/172/112 40/174/103 31/173/112
f 68/115/115 66/177/115 65/39/115
f 65/39/115 67/178/115 68/115/115
f 70/178/116 69/39/116 66/179/116
f 66/179/116 68/180/116 70/178/116
f 72/182/117 71/39/117 69/179/117
f 69/179/117 70/181/117 72/182/117
f 67/115/118 65/177/118 71/39/118
f 71/39/118 72/178/118 67/115/118
f 70/179/119 68/183/119 67/178/119
f 67/178/119 72/39/119 70/179/119
f 66/115/120 69/177/120 71/39/120
f 71/39/120 65/178/120 66/115/120

